<svg width="181" height="181" viewBox="0 0 181 181" fill="none" xmlns="http://www.w3.org/2000/svg">
<path d="M61.5337 95.341C68.1196 95.341 75.1166 93.2247 75.1166 89.302V81.8987C75.1166 81.6529 75.0904 81.4158 75.0352 81.1846C74.9305 80.722 74.7225 80.2886 74.4272 79.8843C74.2789 79.6821 74.1102 79.4872 73.9211 79.2981C73.7829 79.1643 73.6389 79.0349 73.4818 78.9069C73.4222 78.8589 73.3567 78.8138 73.2942 78.7658C73.1938 78.6902 73.0964 78.6145 72.9888 78.5433C72.9044 78.4836 72.8128 78.4284 72.7226 78.3717C72.6324 78.3149 72.5422 78.2582 72.4492 78.2029C72.3401 78.1389 72.2281 78.0793 72.1175 78.0197C72.0346 77.9775 71.9532 77.9339 71.8688 77.8888C71.7379 77.8233 71.6056 77.7622 71.4703 77.6997C71.3976 77.6662 71.3278 77.6342 71.2536 77.6022C71.1023 77.5353 70.9467 77.4699 70.7882 77.4088C70.73 77.3855 70.6718 77.3652 70.6122 77.3404C70.4362 77.2735 70.2573 77.2081 70.0755 77.1441C70.0348 77.1296 69.9926 77.1179 69.9519 77.1034C69.7497 77.0365 69.5461 76.971 69.3352 76.907C68.0466 76.5231 66.6212 76.2423 65.1434 76.0663C64.5514 75.9965 63.9493 75.9427 63.3442 75.9078H63.3413C62.7377 75.8714 62.1312 75.8525 61.5305 75.8525H61.5291C55.7678 75.8525 49.6898 77.4728 48.26 80.5083C48.0578 80.9417 47.9473 81.4042 47.9473 81.8944V89.2962C47.9516 93.2262 54.9506 95.3407 61.5332 95.3407L61.5337 95.341ZM72.813 89.302C72.813 90.8248 68.422 93.0384 61.5366 93.0384V87.9392C65.7955 87.9392 70.214 87.0491 72.813 85.3619V89.302ZM50.3039 81.6064C50.3344 81.5177 50.3795 81.4261 50.4362 81.3344C50.458 81.3024 50.4842 81.2705 50.506 81.2399C50.5482 81.1803 50.5918 81.1206 50.6471 81.0581C50.6806 81.0188 50.7227 80.9781 50.7606 80.9403C50.8129 80.8879 50.8682 80.8341 50.9278 80.7818C50.9787 80.7381 51.034 80.693 51.0922 80.6479C51.1504 80.5999 51.2114 80.5534 51.2769 80.5054C51.3453 80.456 51.418 80.4065 51.4951 80.3585C51.5562 80.3178 51.6216 80.2771 51.6871 80.2363C51.7772 80.1811 51.8689 80.1273 51.9678 80.0763C52.0259 80.0429 52.0899 80.0109 52.151 79.9789C52.2674 79.9193 52.3823 79.8611 52.5088 79.8029C52.551 79.7811 52.599 79.7622 52.6441 79.7433C53.8906 79.1819 55.5908 78.699 57.6576 78.4212C57.6649 78.4197 57.6722 78.4197 57.6795 78.4197C57.9762 78.379 58.2787 78.3441 58.5914 78.3135C58.603 78.3121 58.6161 78.3121 58.6278 78.3106C58.9405 78.2786 59.259 78.2539 59.5848 78.2335H59.5877C60.2131 78.1928 60.8604 78.1681 61.5367 78.1681C62.2479 78.1681 62.9315 78.1914 63.5889 78.2364C64.687 78.3106 65.6979 78.443 66.6258 78.616C66.6898 78.6277 66.7552 78.6408 66.8178 78.6524C67.5508 78.7949 68.2242 78.9651 68.838 79.1528C68.8991 79.1717 68.9617 79.192 69.0213 79.2109C69.318 79.3055 69.6031 79.4044 69.8678 79.5077C69.8736 79.5077 69.8765 79.5091 69.8779 79.5106C70.1354 79.6109 70.371 79.7156 70.5979 79.8204C70.6532 79.8465 70.707 79.8727 70.7623 79.9004C70.9804 80.008 71.1884 80.1171 71.3746 80.2291C71.3804 80.232 71.3848 80.2363 71.392 80.2392C71.5724 80.3469 71.7309 80.456 71.8749 80.5679C71.9142 80.5985 71.9505 80.6261 71.9898 80.6567C72.1309 80.7701 72.2618 80.8821 72.3665 80.9956C72.6632 81.3112 72.8174 81.6195 72.8174 81.9075C72.8174 83.4303 68.4249 85.6439 61.5396 85.6439C61.0305 85.6439 60.5403 85.6279 60.0604 85.6047C59.9164 85.5974 59.7767 85.5872 59.6357 85.5785C59.2924 85.5567 58.9535 85.5305 58.6248 85.4985C58.4867 85.4839 58.3529 85.4723 58.2205 85.4578C57.8336 85.4156 57.4584 85.3647 57.0977 85.3065C57.0482 85.2992 56.9973 85.2949 56.9508 85.2847C56.5261 85.2149 56.1203 85.1363 55.7305 85.0505C55.6738 85.0389 55.6214 85.0243 55.5647 85.0112C55.2316 84.9342 54.9102 84.8512 54.6077 84.764C54.548 84.7465 54.4884 84.7291 54.4273 84.7116C52.794 84.2287 51.5955 83.615 50.9148 83.0041C50.8886 82.9794 50.8639 82.9561 50.8392 82.9343C50.7796 82.8761 50.7199 82.8179 50.6661 82.7598C50.5977 82.6841 50.5352 82.607 50.4843 82.5329C50.4596 82.4994 50.445 82.466 50.4261 82.4325C50.3912 82.3714 50.3592 82.3103 50.3359 82.2492C50.3258 82.2187 50.3127 82.1911 50.3039 82.1634C50.2792 82.0776 50.2603 81.9889 50.2603 81.906C50.253 81.8042 50.2734 81.7053 50.3039 81.6064L50.3039 81.6064Z" fill="black"/>
<path d="M90.4463 84.4465C97.0307 84.4465 104.029 82.3288 104.029 78.4075V71.0042C104.029 70.7584 104.002 70.5213 103.948 70.2901C103.842 69.8276 103.634 69.3956 103.338 68.9898C103.19 68.7876 103.02 68.5927 102.832 68.4037C102.697 68.2698 102.55 68.1404 102.394 68.0138C102.335 67.9658 102.269 67.9208 102.207 67.8728C102.106 67.7971 102.009 67.7215 101.901 67.6488C101.816 67.5906 101.725 67.5339 101.635 67.4772C101.546 67.4204 101.455 67.3637 101.363 67.3084C101.254 67.2444 101.145 67.1848 101.032 67.1252C100.949 67.0815 100.867 67.0365 100.784 66.9943C100.653 66.9288 100.521 66.8648 100.384 66.8052C100.315 66.7717 100.242 66.7383 100.169 66.7063C100.018 66.6394 99.8608 66.5739 99.7037 66.5129C99.6455 66.4896 99.5873 66.4692 99.5277 66.4445C99.3517 66.3776 99.1728 66.3121 98.9895 66.251C98.9488 66.2365 98.9081 66.2234 98.8674 66.2103C98.6652 66.142 98.4616 66.0765 98.2478 66.014C96.9591 65.63 95.5337 65.3493 94.056 65.1748C93.464 65.1049 92.8619 65.0511 92.2568 65.0162H92.2539C91.6532 64.9813 91.0467 64.9639 90.4431 64.9639H90.4416C84.6804 64.9639 78.6038 66.5841 77.174 69.6196C76.9719 70.0531 76.8613 70.5155 76.8613 71.0057V78.4075C76.8657 82.3286 83.8632 84.4465 90.4458 84.4465L90.4463 84.4465ZM101.726 78.406C101.726 79.9288 97.3345 82.1424 90.4492 82.1424V77.0432C94.7081 77.0432 99.1266 76.1531 101.726 74.4659V78.406ZM79.2194 70.7105C79.25 70.6217 79.2951 70.5301 79.3518 70.4385C79.3736 70.4065 79.3998 70.3745 79.4216 70.3439C79.4638 70.2843 79.5074 70.2247 79.5612 70.1621C79.5947 70.1229 79.6369 70.0821 79.6761 70.0429C79.7285 69.9905 79.7823 69.9367 79.8419 69.8843C79.8929 69.8407 79.9496 69.7956 80.0063 69.7505C80.0645 69.7025 80.1256 69.6574 80.191 69.608C80.2594 69.5585 80.3321 69.5091 80.4077 69.4611C80.4688 69.4203 80.5343 69.3796 80.6012 69.3389C80.6899 69.2865 80.783 69.2313 80.8804 69.1789C80.9386 69.1455 81.0026 69.1149 81.0637 69.0815C81.18 69.0218 81.2949 68.9637 81.4215 68.9055C81.4637 68.8837 81.5117 68.8647 81.5553 68.8458C82.8018 68.2844 84.5006 67.8015 86.5674 67.5237C86.5732 67.5223 86.5819 67.5223 86.5892 67.5208C86.8859 67.4816 87.1884 67.4452 87.4997 67.4146C87.5113 67.4146 87.5244 67.4132 87.536 67.4117C87.8487 67.3797 88.1673 67.3536 88.4931 67.3347H88.4945C89.1228 67.2925 89.7701 67.2663 90.4464 67.2663C91.1576 67.2663 91.8412 67.291 92.4972 67.3347C93.5953 67.4088 94.6062 67.5412 95.5341 67.7143C95.5981 67.7244 95.6635 67.7375 95.726 67.7506C96.4576 67.8931 97.1325 68.0633 97.7448 68.251C97.8059 68.2699 97.8685 68.2902 97.9281 68.3091C98.2263 68.4037 98.5099 68.5026 98.7746 68.6059C98.7804 68.6073 98.7833 68.6088 98.7862 68.6117C99.0437 68.712 99.2778 68.8167 99.5033 68.9215C99.5556 68.9476 99.6124 68.9738 99.6676 68.9985C99.8858 69.1062 100.094 69.2153 100.281 69.3273C100.287 69.3302 100.292 69.3345 100.299 69.3374C100.479 69.4465 100.636 69.5556 100.782 69.6661C100.821 69.6967 100.857 69.7243 100.895 69.752C101.036 69.8654 101.164 69.9789 101.272 70.0908C101.569 70.4065 101.723 70.7148 101.723 71.0028C101.723 72.5256 97.3302 74.7392 90.4449 74.7392C89.9359 74.7392 89.4457 74.7232 88.9643 74.7C88.8203 74.6941 88.6807 74.684 88.5396 74.6752C88.1963 74.6534 87.8575 74.6258 87.5288 74.5938C87.3906 74.5821 87.2568 74.5676 87.1244 74.5531C86.7375 74.5094 86.3623 74.4585 86.0016 74.4018C85.9521 74.3931 85.9012 74.3872 85.8532 74.38C85.4286 74.3102 85.0242 74.2316 84.633 74.1444C84.5763 74.1327 84.5239 74.1182 84.4686 74.1051C84.1341 74.0295 83.8156 73.9465 83.513 73.8578C83.4534 73.8404 83.3938 73.8229 83.3327 73.8069C81.6993 73.324 80.5009 72.7103 79.8202 72.0994C79.794 72.0747 79.7678 72.0529 79.7445 72.0296C79.6849 71.9714 79.6253 71.9147 79.5715 71.8551C79.5031 71.7794 79.4406 71.7023 79.3897 71.6282C79.3649 71.5947 79.3504 71.5612 79.3315 71.5293C79.2966 71.4682 79.2646 71.4056 79.2413 71.346C79.2311 71.3184 79.218 71.2893 79.2093 71.2616C79.1831 71.1729 79.1657 71.0871 79.1657 71.0042C79.1671 70.9082 79.186 70.8108 79.2195 70.7104L79.2194 70.7105Z" fill="black"/>
<path d="M119.359 73.5519C125.943 73.5519 132.942 71.4342 132.942 67.5129V60.1082C132.942 59.8624 132.914 59.6253 132.86 59.394C132.754 58.9315 132.546 58.4996 132.251 58.0937C132.103 57.8916 131.934 57.6967 131.745 57.5076C131.61 57.3738 131.463 57.2444 131.307 57.1178C131.247 57.0698 131.182 57.0247 131.119 56.9767C131.019 56.9011 130.922 56.8255 130.814 56.7527C130.728 56.6946 130.638 56.6393 130.548 56.5811C130.459 56.5244 130.367 56.4677 130.276 56.4124C130.167 56.3484 130.058 56.2888 129.944 56.2291C129.861 56.1855 129.78 56.1433 129.697 56.0982C129.566 56.0328 129.434 55.9717 129.297 55.9092C129.227 55.8757 129.154 55.8423 129.082 55.8117C128.93 55.7448 128.773 55.6794 128.616 55.6183C128.558 55.595 128.5 55.5717 128.44 55.5499C128.264 55.483 128.085 55.4176 127.904 55.3536C127.863 55.339 127.821 55.3274 127.78 55.3128C127.578 55.2459 127.374 55.179 127.16 55.1165C125.872 54.7325 124.446 54.4518 122.969 54.2758C122.377 54.206 121.774 54.1522 121.169 54.1173H121.167C120.563 54.0809 119.956 54.062 119.356 54.062H119.354C113.593 54.062 107.513 55.6823 106.085 58.7178C105.883 59.1512 105.772 59.6137 105.772 60.1039V67.5071C105.777 71.4342 112.773 73.5517 119.358 73.5517L119.359 73.5519ZM130.637 67.5129C130.637 69.0357 126.246 71.2494 119.36 71.2494V66.1502C123.618 66.1502 128.038 65.26 130.637 63.5729V67.5129ZM108.131 59.8159C108.161 59.7272 108.206 59.6356 108.261 59.5468C108.283 59.5148 108.309 59.4828 108.331 59.4523C108.373 59.3927 108.417 59.333 108.471 59.2705C108.504 59.2312 108.547 59.1905 108.584 59.1527C108.637 59.1003 108.692 59.045 108.752 58.9941C108.803 58.9505 108.859 58.904 108.916 58.8603C108.974 58.8123 109.035 58.7658 109.101 58.7178C109.168 58.6683 109.242 58.6189 109.317 58.5709C109.378 58.5302 109.444 58.4894 109.509 58.4487C109.6 58.3934 109.691 58.3396 109.79 58.2887C109.848 58.2553 109.909 58.2233 109.973 58.1913C110.09 58.1316 110.206 58.0735 110.331 58.0153C110.373 57.9935 110.421 57.9746 110.465 57.9556C111.711 57.3942 113.412 56.9113 115.479 56.6335C115.486 56.6321 115.495 56.6321 115.5 56.6306C115.799 56.5914 116.1 56.5565 116.412 56.5245C116.424 56.523 116.437 56.523 116.449 56.5216C116.763 56.4896 117.08 56.4648 117.409 56.4445H117.411C118.035 56.4037 118.684 56.3776 119.36 56.3776C120.069 56.3776 120.755 56.4023 121.411 56.4459C122.508 56.5201 123.52 56.6525 124.448 56.8255C124.512 56.8372 124.578 56.8502 124.64 56.8619C125.372 57.0044 126.047 57.1746 126.659 57.3622C126.72 57.3811 126.783 57.4015 126.842 57.4204C127.14 57.5149 127.424 57.6138 127.689 57.7171C127.694 57.7171 127.697 57.7186 127.7 57.72C127.958 57.8204 128.192 57.9251 128.417 58.0298C128.47 58.056 128.526 58.0822 128.582 58.1069C128.8 58.216 129.008 58.3251 129.195 58.4371C129.201 58.44 129.206 58.4443 129.213 58.4473C129.393 58.5549 129.55 58.664 129.696 58.776C129.735 58.8065 129.771 58.8341 129.809 58.8647C129.95 58.9781 130.081 59.0901 130.186 59.2036C130.484 59.5192 130.637 59.8275 130.637 60.1141C130.637 61.6369 126.244 63.852 119.359 63.852C118.85 63.852 118.36 63.836 117.878 63.8127C117.734 63.8069 117.595 63.7967 117.454 63.788C117.11 63.7662 116.772 63.74 116.443 63.708C116.308 63.6934 116.174 63.6818 116.039 63.6673C115.655 63.6236 115.276 63.5727 114.916 63.516C114.868 63.5087 114.815 63.5015 114.767 63.4942C114.344 63.4244 113.938 63.3458 113.548 63.2586C113.492 63.2484 113.439 63.2324 113.383 63.2193C113.05 63.1437 112.73 63.0608 112.426 62.9735C112.366 62.956 112.306 62.9386 112.245 62.9211C110.612 62.4382 109.413 61.8245 108.733 61.2136C108.705 61.1903 108.682 61.1671 108.657 61.1438C108.598 61.0856 108.538 61.0289 108.483 60.9707C108.416 60.8951 108.353 60.818 108.301 60.7409C108.276 60.7075 108.262 60.674 108.243 60.642C108.208 60.5809 108.177 60.5184 108.152 60.4588C108.141 60.4311 108.129 60.402 108.119 60.3744C108.094 60.2886 108.077 60.1999 108.077 60.117C108.078 60.0151 108.096 59.9177 108.131 59.8159L108.131 59.8159Z" fill="black"/>
<path d="M178.334 57.3179C178.334 57.312 178.333 57.3077 178.333 57.3033C178.331 57.2015 178.315 57.1012 178.286 57.0037C178.277 56.9688 178.261 56.9353 178.25 56.9033C178.223 56.8364 178.197 56.7739 178.158 56.7143C178.136 56.6823 178.119 56.6503 178.094 56.6212C178.052 56.5645 178.001 56.5121 177.947 56.4641C177.921 56.4408 177.899 56.4161 177.871 56.3957C177.86 56.387 177.85 56.3739 177.837 56.3652C177.762 56.3143 177.681 56.2721 177.598 56.2401C177.597 56.2401 177.595 56.2387 177.592 56.2387L177.591 56.2372C177.591 56.2372 177.589 56.2372 177.585 56.2357L161.851 50.2128L161.852 49.2136C161.852 48.9678 161.824 48.7307 161.771 48.4994C161.664 48.0369 161.456 47.6049 161.161 47.1991C161.013 46.997 160.844 46.8021 160.655 46.613C160.52 46.4792 160.373 46.3497 160.217 46.2232C160.158 46.1737 160.092 46.1301 160.03 46.0821C159.929 46.0065 159.832 45.9308 159.724 45.8596C159.638 45.7999 159.548 45.7447 159.458 45.6879C159.369 45.6298 159.278 45.5745 159.186 45.5192C159.077 45.4581 158.968 45.3971 158.854 45.336C158.773 45.2923 158.691 45.2472 158.607 45.2051C158.476 45.1396 158.344 45.0785 158.207 45.016C158.137 44.9825 158.066 44.9505 157.992 44.9185C157.841 44.8516 157.684 44.7862 157.526 44.7251C157.468 44.7018 157.41 44.6815 157.35 44.6567C157.175 44.5898 156.999 44.5244 156.814 44.4604C156.773 44.4458 156.731 44.4342 156.69 44.4197C156.488 44.3513 156.284 44.2858 156.071 44.2233C154.786 43.8423 153.361 43.5601 151.883 43.3855C151.291 43.3157 150.689 43.2619 150.084 43.227H150.081C149.478 43.1921 148.871 43.1717 148.27 43.1717H148.269C146.9 43.1717 145.514 43.2663 144.178 43.4466L132.661 39.0381V38.0389C132.661 37.7931 132.635 37.556 132.581 37.3248C132.475 36.8622 132.267 36.4303 131.973 36.0245C131.825 35.8223 131.655 35.6274 131.466 35.4383C131.33 35.3045 131.183 35.1751 131.028 35.0485C130.968 35.0005 130.903 34.9554 130.84 34.9074C130.74 34.8318 130.642 34.7562 130.535 34.6835C130.449 34.6253 130.359 34.5686 130.27 34.5118C130.18 34.4537 130.09 34.3984 129.997 34.3431C129.889 34.282 129.778 34.2209 129.665 34.1599C129.583 34.1162 129.501 34.0711 129.416 34.029C129.29 33.9635 129.156 33.8995 129.019 33.8384C128.949 33.805 128.875 33.773 128.802 33.741C128.65 33.6741 128.496 33.6086 128.337 33.5475C128.279 33.5243 128.221 33.5039 128.161 33.4792C127.984 33.4123 127.806 33.3468 127.623 33.2857C127.582 33.2712 127.54 33.2581 127.499 33.245C127.299 33.1766 127.095 33.1112 126.884 33.0487C125.594 32.6647 124.169 32.384 122.692 32.208C122.097 32.1382 121.495 32.0844 120.892 32.0495H120.89C120.288 32.0175 119.683 32 119.078 32H119.076C113.315 32 107.237 33.6203 105.809 36.6557C105.607 37.0877 105.496 37.5517 105.496 38.0419V38.7531L93.8955 43.1236C93.9944 43.1338 94.089 43.1513 94.1864 43.1644C94.0526 43.1469 93.9188 43.1251 93.7821 43.1091C93.1872 43.0393 92.5851 42.9855 91.9815 42.9506C91.3764 42.9113 90.7699 42.8938 90.1663 42.8938C84.4051 42.8938 78.3285 44.5141 76.8987 47.5496C76.6966 47.983 76.586 48.4455 76.586 48.9357V49.6469L64.9854 54.0175C65.0188 54.0204 65.0523 54.0276 65.0872 54.032C65.0145 54.0233 64.9446 54.0102 64.8719 54.0015C64.277 53.9317 63.6764 53.8778 63.0713 53.8429H63.0699C62.4648 53.808 61.8583 53.7906 61.2576 53.7906H61.2562C55.4949 53.7906 49.4169 55.4108 47.9871 58.4463C47.7849 58.8798 47.6729 59.3422 47.6729 59.8324V60.5437L36.0723 64.9142C36.1552 64.9244 36.2381 64.9389 36.321 64.9491C36.2017 64.9331 36.081 64.9142 35.9588 64.8997C35.3639 64.8298 34.7633 64.776 34.1582 64.7411H34.1568C33.5517 64.7062 32.9452 64.6859 32.3445 64.6859H32.343C26.5818 64.6859 20.5037 66.3061 19.0754 69.3416C18.8704 69.775 18.7613 70.2375 18.7613 70.7277V71.439L2.74468 77.4735C2.74177 77.4749 2.73741 77.4793 2.7345 77.4793C2.65159 77.5113 2.5716 77.552 2.49888 77.6029C2.4887 77.6102 2.47997 77.6218 2.46833 77.6291C2.43779 77.6524 2.41306 77.6771 2.38689 77.7018C2.33453 77.7484 2.28653 77.7964 2.24435 77.8516C2.21962 77.8836 2.19781 77.9127 2.17744 77.9462C2.14108 78.0058 2.11054 78.0684 2.08581 78.1338C2.07418 78.1673 2.05818 78.1978 2.04945 78.2327C2.02182 78.3301 2.00291 78.4305 2.00291 78.5338C2.00145 78.5352 2 78.5396 2 78.5454V78.5469V125.894C2 126.372 2.2938 126.798 2.73887 126.967L61.1181 149.315C61.1269 149.318 61.14 149.316 61.1501 149.321C61.2723 149.364 61.4003 149.391 61.5297 149.391C61.6592 149.391 61.7843 149.364 61.905 149.324C61.9137 149.321 61.9268 149.322 61.9355 149.316L177.584 105.738C178.032 105.569 178.331 105.14 178.331 104.661V57.322C178.332 57.3191 178.332 57.3176 178.332 57.3162L178.334 57.3179ZM144.41 45.7318C144.709 45.6925 145.011 45.6561 145.322 45.6256C145.334 45.6241 145.347 45.6241 145.359 45.6227C145.673 45.5907 145.99 45.5645 146.319 45.5456H146.322C146.947 45.5049 147.594 45.4801 148.271 45.4801C148.982 45.4801 149.665 45.5034 150.321 45.5485C151.419 45.6227 152.43 45.755 153.358 45.9281C153.422 45.9397 153.488 45.9528 153.55 45.9645C154.282 46.107 154.957 46.2772 155.57 46.4648C155.63 46.4837 155.693 46.5041 155.754 46.523C156.052 46.6175 156.337 46.7164 156.6 46.8197C156.606 46.8211 156.609 46.8226 156.612 46.8226C156.869 46.923 157.103 47.0277 157.329 47.1324C157.381 47.1586 157.438 47.1833 157.493 47.2095C157.711 47.3171 157.919 47.4262 158.107 47.5382C158.113 47.5411 158.117 47.5455 158.124 47.5484C158.305 47.656 158.462 47.7665 158.607 47.8771C158.647 47.9076 158.683 47.9353 158.721 47.9629C158.862 48.0763 158.993 48.1883 159.097 48.3018C159.396 48.6174 159.548 48.9257 159.548 49.2137C159.548 50.7365 155.156 52.9501 148.27 52.9501C147.761 52.9501 147.271 52.9341 146.79 52.9109C146.646 52.9036 146.506 52.8934 146.365 52.8847C146.022 52.8629 145.683 52.8367 145.354 52.8047C145.219 52.7931 145.085 52.7785 144.95 52.764C144.563 52.7218 144.186 52.6709 143.826 52.6127C143.778 52.6054 143.725 52.6011 143.679 52.5909C143.254 52.5211 142.848 52.4411 142.459 52.3553C142.402 52.3436 142.349 52.3291 142.293 52.316C141.96 52.2389 141.64 52.1575 141.336 52.0687C141.276 52.0513 141.216 52.0338 141.155 52.0164C139.522 51.5335 138.324 50.9197 137.643 50.3089C137.615 50.2842 137.592 50.2609 137.567 50.2391C137.508 50.1809 137.448 50.1227 137.393 50.0645C137.326 49.9889 137.263 49.9118 137.211 49.8376C137.188 49.8042 137.172 49.7707 137.153 49.7387C137.118 49.6776 137.087 49.6151 137.063 49.5555C137.051 49.5278 137.039 49.4973 137.029 49.4696C137.004 49.3838 136.987 49.2966 136.987 49.2122C136.987 49.1177 137.004 49.0202 137.036 48.9199C137.068 48.8311 137.112 48.7395 137.169 48.6479C137.191 48.6159 137.215 48.5839 137.237 48.5533C137.279 48.4937 137.323 48.4341 137.377 48.3715C137.41 48.3323 137.452 48.2915 137.492 48.2537C137.542 48.2014 137.598 48.1475 137.657 48.0952C137.708 48.0516 137.765 48.0065 137.822 47.9614C137.88 47.9134 137.941 47.8683 138.006 47.8188C138.073 47.7694 138.148 47.7199 138.223 47.6719C138.284 47.6312 138.35 47.5905 138.417 47.5498C138.505 47.4945 138.598 47.4421 138.696 47.3898C138.754 47.3563 138.818 47.3243 138.879 47.2923C138.995 47.2327 139.112 47.1745 139.237 47.1163C139.279 47.0945 139.327 47.0756 139.371 47.0567C140.617 46.4953 142.317 46.0124 144.384 45.7346C144.397 45.7317 144.406 45.7317 144.41 45.7317L144.41 45.7318ZM159.548 52.6752V56.6182C159.548 58.141 155.157 60.3547 148.272 60.3547V55.2555C152.529 55.2526 156.949 54.3625 159.548 52.6753V52.6752ZM107.849 37.7465C107.879 37.6578 107.924 37.5662 107.98 37.4746C108.002 37.4426 108.028 37.4106 108.05 37.38C108.092 37.3204 108.134 37.2608 108.189 37.1982C108.223 37.1589 108.265 37.1182 108.303 37.0804C108.355 37.028 108.41 36.9742 108.47 36.9219C108.519 36.8782 108.577 36.8331 108.634 36.788C108.692 36.74 108.753 36.695 108.819 36.6455C108.886 36.5961 108.96 36.5466 109.036 36.4986C109.097 36.4579 109.162 36.4172 109.228 36.3764C109.318 36.3212 109.409 36.2688 109.507 36.2165C109.565 36.183 109.629 36.151 109.69 36.119C109.805 36.0594 109.923 36.0012 110.046 35.943C110.089 35.9212 110.138 35.9023 110.182 35.8834C111.428 35.322 113.128 34.8391 115.195 34.5613C115.203 34.5613 115.21 34.5598 115.217 34.5598C115.514 34.5205 115.816 34.4842 116.129 34.4536C116.141 34.4522 116.154 34.4522 116.165 34.4507C116.478 34.4187 116.797 34.3926 117.122 34.3736H117.125C117.751 34.3329 118.401 34.3082 119.074 34.3082C119.786 34.3082 120.469 34.3315 121.127 34.3766C122.223 34.4507 123.236 34.5831 124.163 34.7562C124.229 34.7678 124.293 34.7809 124.354 34.7925C125.087 34.9351 125.763 35.1052 126.374 35.2929C126.435 35.3118 126.498 35.3321 126.559 35.351C126.856 35.4456 127.141 35.5445 127.405 35.6478C127.408 35.6492 127.413 35.6507 127.416 35.6536C127.673 35.7539 127.907 35.8587 128.133 35.9634C128.188 35.9896 128.242 36.0143 128.297 36.0405C128.515 36.1481 128.726 36.2572 128.911 36.3692C128.917 36.3721 128.921 36.3764 128.927 36.3793C129.109 36.487 129.266 36.5975 129.411 36.7081C129.447 36.7386 129.488 36.7662 129.525 36.7939C129.666 36.9073 129.797 37.0208 129.904 37.1328C130.198 37.4484 130.355 37.7567 130.355 38.0447C130.355 39.5675 125.961 41.7811 119.074 41.7811C118.567 41.7811 118.076 41.7651 117.595 41.7419C117.451 41.736 117.311 41.7259 117.17 41.7157C116.827 41.6939 116.488 41.6677 116.16 41.6357C116.024 41.624 115.89 41.6095 115.755 41.595C115.368 41.5513 114.993 41.5004 114.632 41.4437C114.583 41.435 114.532 41.4291 114.484 41.4219C114.059 41.3521 113.654 41.2735 113.265 41.1863C113.208 41.1746 113.156 41.1601 113.099 41.147C112.766 41.0699 112.445 40.9885 112.142 40.8997C112.083 40.8823 112.023 40.8648 111.961 40.8488C110.327 40.3659 109.13 39.7522 108.449 39.1413C108.422 39.1166 108.397 39.0948 108.374 39.0715C108.314 39.0133 108.255 38.9551 108.199 38.897C108.131 38.8213 108.07 38.7442 108.018 38.6701C107.993 38.6366 107.978 38.6032 107.959 38.5712C107.924 38.5101 107.892 38.4475 107.868 38.3879C107.858 38.3603 107.846 38.3312 107.836 38.3035C107.81 38.2148 107.792 38.129 107.792 38.0461C107.798 37.9443 107.815 37.8468 107.849 37.7465V37.7465ZM130.359 41.5005V45.4436C130.359 46.9664 125.967 49.18 119.082 49.18V44.0808C123.337 44.0793 127.759 43.1878 130.359 41.5006V41.5005ZM78.9392 48.642C78.9697 48.5532 79.0148 48.4616 79.0715 48.37C79.0904 48.338 79.1195 48.306 79.1413 48.2754C79.1835 48.2158 79.2257 48.1562 79.281 48.0936C79.3144 48.0544 79.3566 48.0136 79.3944 47.9758C79.4468 47.9235 79.502 47.8682 79.5617 47.8173C79.6126 47.7737 79.6679 47.7286 79.726 47.6835C79.7842 47.6355 79.8453 47.5889 79.9107 47.5409C79.9791 47.4915 80.0518 47.442 80.1289 47.394C80.19 47.3533 80.2555 47.3126 80.3209 47.2719C80.4111 47.2166 80.5027 47.1628 80.6016 47.1119C80.6598 47.0784 80.7238 47.0464 80.7849 47.0144C80.9012 46.9548 81.0176 46.8966 81.1427 46.8384C81.1849 46.8166 81.2329 46.7977 81.2779 46.7788C82.5244 46.2174 84.2232 45.7345 86.29 45.4567C86.2973 45.4552 86.3046 45.4552 86.3118 45.4538C86.6085 45.4145 86.9111 45.3796 87.2238 45.3476C87.2354 45.3462 87.2485 45.3462 87.2601 45.3447C87.5728 45.3127 87.8914 45.288 88.2172 45.2676H88.2201C88.844 45.2225 89.4898 45.1963 90.1661 45.1963C90.8774 45.1963 91.561 45.2211 92.2169 45.2647C93.315 45.3389 94.3273 45.4712 95.2538 45.6443C95.3193 45.6559 95.3833 45.669 95.4443 45.6807C96.1774 45.8232 96.8537 45.9948 97.4646 46.181C97.5257 46.1999 97.5882 46.2203 97.6493 46.2392C97.946 46.3337 98.2311 46.4326 98.4958 46.5359C98.4987 46.5359 98.503 46.5374 98.506 46.5388C98.7634 46.6392 98.9976 46.7439 99.223 46.8486C99.2783 46.8748 99.3321 46.901 99.3874 46.9286C99.6055 47.0362 99.8135 47.1453 100.001 47.2573C100.007 47.2602 100.011 47.2646 100.017 47.2675C100.197 47.3751 100.356 47.4842 100.5 47.5962C100.539 47.6267 100.58 47.6544 100.615 47.6849C100.756 47.7984 100.887 47.9104 100.995 48.0238C101.288 48.3394 101.445 48.6478 101.445 48.9358C101.445 50.4585 97.0514 52.6722 90.1646 52.6722C89.6555 52.6722 89.1654 52.6562 88.6854 52.6329C88.5414 52.6256 88.4018 52.6155 88.2607 52.6067C87.9174 52.5849 87.5786 52.5587 87.2499 52.5267C87.1146 52.5122 86.9808 52.5006 86.8455 52.486C86.4586 52.4424 86.0834 52.3929 85.7227 52.3348C85.6733 52.3275 85.6224 52.3231 85.5758 52.3129C85.1511 52.2431 84.7453 52.1646 84.3555 52.0788C84.2988 52.0671 84.2465 52.0526 84.1897 52.0395C83.8567 51.9624 83.5367 51.8795 83.2342 51.7922C83.1745 51.7748 83.1149 51.7573 83.0538 51.7399C81.4205 51.257 80.222 50.6432 79.5413 50.0324C79.5137 50.0076 79.4889 49.9844 79.4657 49.9626C79.406 49.9044 79.3464 49.8462 79.2926 49.788C79.2242 49.7124 79.1617 49.6353 79.1108 49.5611C79.0875 49.5277 79.0715 49.4942 79.0526 49.4608C79.0177 49.3997 78.9857 49.3386 78.9624 49.2775C78.9523 49.247 78.9392 49.2193 78.9304 49.1917C78.9057 49.1059 78.8868 49.0172 78.8868 48.9343C78.8883 48.8397 78.9057 48.7423 78.9392 48.6419L78.9392 48.642ZM101.447 52.3944V56.3375C101.447 57.8603 97.0543 60.0739 90.169 60.0739V54.9747C94.4263 54.9733 98.8479 54.0817 101.447 52.3945V52.3944ZM50.0266 59.5359C50.0571 59.4472 50.1022 59.3555 50.1589 59.2639C50.1807 59.2319 50.2069 59.1999 50.2287 59.1694C50.2709 59.1097 50.3131 59.0501 50.3684 58.9876C50.4018 58.9483 50.444 58.9076 50.4833 58.8698C50.5356 58.8174 50.5894 58.7621 50.6491 58.7098C50.7 58.6661 50.7567 58.621 50.8134 58.5774C50.8716 58.5294 50.9327 58.4829 50.9981 58.4349C51.0665 58.3854 51.1392 58.336 51.2149 58.2865C51.2759 58.2458 51.3414 58.2051 51.4083 58.1643C51.497 58.112 51.5901 58.0567 51.6876 58.0044C51.7457 57.9724 51.8097 57.9404 51.8708 57.9069C51.9857 57.8473 52.1021 57.7891 52.2272 57.7309C52.2693 57.7091 52.3188 57.6902 52.3624 57.6713C53.6089 57.1099 55.3092 56.627 57.376 56.3492C57.3818 56.3477 57.3905 56.3477 57.3978 56.3463C57.6945 56.307 57.997 56.2706 58.3097 56.2401C58.3214 56.2386 58.333 56.2386 58.3461 56.2372C58.6588 56.2052 58.9773 56.179 59.3031 56.1601H59.3046C59.93 56.1194 60.5801 56.0932 61.255 56.0932C61.9663 56.0932 62.6498 56.1179 63.3058 56.1615C64.4039 56.2357 65.4162 56.3681 66.3427 56.5412C66.4081 56.5528 66.4721 56.5644 66.5346 56.5775C67.2677 56.72 67.9411 56.8902 68.5534 57.0779C68.6145 57.0968 68.6771 57.1171 68.7382 57.136C69.0349 57.2306 69.3199 57.328 69.5846 57.4327C69.5876 57.4342 69.5905 57.4357 69.5948 57.4386C69.8508 57.5389 70.0864 57.6436 70.3119 57.7484C70.3672 57.7745 70.421 57.8007 70.4748 57.8254C70.6959 57.9331 70.9038 58.0436 71.0885 58.1556C71.0944 58.1585 71.0987 58.1629 71.1045 58.1658C71.2849 58.2749 71.442 58.384 71.5874 58.4945C71.6267 58.525 71.6645 58.5527 71.7023 58.5803C71.8434 58.6938 71.9743 58.8072 72.0819 58.9207C72.3757 59.2348 72.5313 59.5446 72.5313 59.8311C72.5313 61.3539 68.1374 63.5676 61.2535 63.5676C60.7445 63.5676 60.2543 63.5516 59.7743 63.5283C59.6303 63.5225 59.4907 63.5123 59.3496 63.5036C59.0064 63.4818 58.6675 63.4556 58.3388 63.4236C58.2035 63.409 58.0668 63.3974 57.9345 63.3829C57.5505 63.3392 57.1723 63.2883 56.8117 63.2316C56.7622 63.2243 56.7113 63.2171 56.6633 63.2098C56.2386 63.14 55.8342 63.0614 55.4445 62.9742C55.3863 62.9625 55.3354 62.948 55.2787 62.9349C54.9441 62.8593 54.6242 62.7764 54.3216 62.6891C54.262 62.6716 54.2024 62.6542 54.1413 62.6367C52.5079 62.1538 51.3109 61.5401 50.6288 60.9292C50.6026 60.9045 50.5764 60.8827 50.5531 60.8594C50.4935 60.8012 50.4339 60.7445 50.3801 60.6849C50.3117 60.6092 50.2492 60.5336 50.1983 60.458C50.1735 60.4245 50.159 60.3911 50.1401 60.3591C50.1052 60.298 50.0732 60.2354 50.0485 60.1758C50.0383 60.1482 50.0266 60.1191 50.0165 60.0914C49.9903 60.0027 49.9728 59.9169 49.9728 59.834C49.9757 59.7351 49.9932 59.6362 50.0266 59.5358L50.0266 59.5359ZM72.5357 63.2898V67.2314C72.5357 68.7542 68.1432 70.9679 61.2578 70.9679V65.8687C65.5178 65.8687 69.9367 64.9786 72.5357 63.2899V63.2898ZM21.1117 70.4313C21.1423 70.3426 21.1873 70.251 21.2441 70.1593C21.263 70.1273 21.2921 70.0954 21.3139 70.0648C21.3561 70.0052 21.3997 69.9455 21.4535 69.883C21.4884 69.8437 21.5291 69.803 21.5684 69.7652C21.6208 69.7128 21.676 69.659 21.7357 69.6066C21.7851 69.563 21.8419 69.5179 21.8986 69.4728C21.9582 69.4248 22.0178 69.3797 22.0862 69.3303C22.1546 69.2808 22.2273 69.2314 22.3029 69.1834C22.364 69.1427 22.4324 69.102 22.4964 69.0612C22.5851 69.006 22.6782 68.9536 22.7756 68.9012C22.8353 68.8678 22.8978 68.8358 22.9589 68.8038C23.0738 68.7441 23.1901 68.686 23.3152 68.6278C23.3574 68.606 23.4054 68.5871 23.4505 68.5682C24.697 68.0067 26.3958 67.5239 28.4641 67.2461C28.4713 67.2446 28.4786 67.2446 28.4859 67.2446C28.7826 67.2053 29.0851 67.169 29.3978 67.1384C29.4094 67.137 29.4211 67.137 29.4342 67.1355C29.7469 67.1035 30.0654 67.0788 30.3912 67.0584H30.3941C31.0195 67.0177 31.6668 66.993 32.3431 66.993C33.0543 66.993 33.7379 67.0162 34.3953 67.0613C35.4934 67.1355 36.5043 67.2679 37.4322 67.4409C37.4976 67.4526 37.5616 67.4657 37.6242 67.4773C38.3572 67.6198 39.0306 67.79 39.6444 67.9777C39.7055 67.9966 39.768 68.0169 39.8291 68.0358C40.1258 68.1304 40.4124 68.2293 40.6756 68.3325C40.6785 68.334 40.6829 68.334 40.6858 68.3354C40.9418 68.4358 41.1774 68.5405 41.4028 68.6452C41.4596 68.6714 41.5119 68.6962 41.5672 68.7223C41.7854 68.83 41.9963 68.939 42.181 69.051C42.1839 69.0539 42.1897 69.0583 42.197 69.0612C42.3773 69.1689 42.5359 69.2779 42.6799 69.3899C42.7191 69.4205 42.7569 69.4481 42.7948 69.4787C42.9358 69.5921 43.0682 69.7041 43.1744 69.8175C43.4682 70.1332 43.6252 70.4415 43.6252 70.7295C43.6252 72.2523 39.2312 74.4659 32.3444 74.4659C31.8354 74.4659 31.3452 74.4499 30.8652 74.4266C30.7212 74.4194 30.5816 74.4092 30.4405 74.4005C30.0973 74.3786 29.7584 74.3525 29.4297 74.3205C29.2915 74.3088 29.1577 74.2943 29.0254 74.2797C28.6385 74.2376 28.2632 74.1867 27.9026 74.1285C27.8531 74.1212 27.8022 74.1168 27.7557 74.1067C27.331 74.0368 26.9251 73.9568 26.5354 73.871C26.4787 73.8594 26.4263 73.8449 26.3696 73.8318C26.035 73.7547 25.7151 73.6732 25.4125 73.5845C25.3529 73.5671 25.2933 73.5496 25.2322 73.5322C23.5989 73.0493 22.4004 72.4355 21.7197 71.8246C21.6935 71.7999 21.6688 71.7766 21.6455 71.7548C21.5844 71.6966 21.5233 71.6385 21.4724 71.5803C21.4041 71.5047 21.3415 71.4276 21.2906 71.3534C21.2674 71.3199 21.2514 71.2865 21.2324 71.2545C21.1975 71.1934 21.1655 71.1309 21.1423 71.0712C21.1306 71.0436 21.119 71.0145 21.1103 70.9854C21.0841 70.8996 21.0666 70.8109 21.0666 70.728C21.0623 70.6291 21.0797 70.5331 21.1117 70.4313V70.4313ZM43.6223 74.1838V78.1269C43.6223 79.6497 39.2298 81.8633 32.3445 81.8633V76.7641C36.6018 76.7626 41.0219 75.874 43.6223 74.1839V74.1838ZM32.34 84.167C38.926 84.167 45.923 82.0507 45.923 78.128V70.7247C45.923 70.4789 45.8968 70.2418 45.843 70.0106C45.7354 69.5481 45.5288 69.1161 45.2336 68.7103C45.0867 68.5081 44.9165 68.3132 44.726 68.1242C44.5907 67.9903 44.4438 67.8609 44.2867 67.7329C44.2286 67.6849 44.1617 67.6398 44.0991 67.5918C43.9988 67.5162 43.8999 67.4406 43.7937 67.3693C43.7093 67.3096 43.6177 67.2544 43.529 67.1977C43.4388 67.1395 43.3486 67.0842 43.2555 67.0289C43.1479 66.9649 43.0344 66.9053 42.9239 66.8457C42.8425 66.8035 42.7596 66.7599 42.6752 66.7148C42.5457 66.6493 42.4149 66.5882 42.2781 66.5257C42.2054 66.4922 42.1341 66.4602 42.0614 66.4283C41.9102 66.3613 41.7545 66.2959 41.596 66.2348C41.5378 66.2115 41.4796 66.1912 41.42 66.1664C41.244 66.0995 41.0651 66.0341 40.8833 65.9701C40.8426 65.9556 40.8004 65.9439 40.7597 65.9294C40.6041 65.8785 40.4455 65.8276 40.2855 65.7796L47.6668 62.9986V67.2281C47.6668 71.1521 54.6657 73.267 61.2498 73.267C67.8339 73.267 74.8328 71.1494 74.8328 67.2281V59.8248C74.8328 59.579 74.8051 59.3419 74.7528 59.1106C74.6452 58.6481 74.4386 58.2162 74.1434 57.8104C73.9965 57.6082 73.8263 57.4133 73.6358 57.2242C73.502 57.0904 73.3536 56.961 73.198 56.8344C73.1398 56.7864 73.0729 56.7413 73.0103 56.6933C72.91 56.6177 72.8111 56.5421 72.7049 56.4694C72.6191 56.4112 72.5289 56.3545 72.4402 56.2977C72.35 56.241 72.2598 56.1843 72.1653 56.129C72.0591 56.065 71.9471 56.0054 71.8337 55.9458C71.7522 55.9021 71.6693 55.8599 71.5864 55.8149C71.457 55.7494 71.3261 55.6883 71.1894 55.6258C71.1166 55.5923 71.0454 55.5589 70.9727 55.5269C70.8214 55.46 70.6658 55.3945 70.5072 55.3334C70.4491 55.3102 70.3894 55.2869 70.3312 55.2651C70.1553 55.1982 69.9764 55.1327 69.7945 55.0716C69.7538 55.0571 69.7131 55.044 69.6709 55.0309C69.5153 54.98 69.3568 54.9291 69.1968 54.8811L76.5781 52.0987V56.3296C76.5781 60.2507 83.577 62.3686 90.157 62.3686C96.7429 62.3686 103.74 60.2509 103.74 56.3296L103.744 48.9338C103.744 48.688 103.718 48.4509 103.664 48.2182C103.557 47.7557 103.35 47.3237 103.055 46.9208C102.908 46.7187 102.738 46.5238 102.549 46.3347C102.413 46.2009 102.267 46.0714 102.109 45.9449C102.051 45.8969 101.986 45.8518 101.925 45.8038C101.824 45.7282 101.727 45.6525 101.619 45.5798C101.534 45.5216 101.443 45.4664 101.355 45.4082C101.263 45.3515 101.174 45.2947 101.081 45.2395C100.974 45.1755 100.86 45.1159 100.75 45.0562C100.668 45.014 100.585 44.9704 100.501 44.9253C100.374 44.8599 100.24 44.7988 100.104 44.7362C100.034 44.7028 99.9598 44.6708 99.8871 44.6388C99.7343 44.5719 99.5802 44.5064 99.4216 44.4453C99.3635 44.4221 99.3053 44.3988 99.2457 44.377C99.0682 44.3101 98.8908 44.2446 98.7075 44.1806C98.6668 44.1661 98.6246 44.1545 98.5839 44.1399C98.4312 44.089 98.2697 44.0381 98.1112 43.9901L105.492 41.2092V45.4386C105.492 49.3627 112.49 51.4776 119.071 51.4776C125.657 51.4776 132.654 49.3599 132.654 45.4386L132.656 41.5059L140.072 44.3421C137.624 45.1275 135.72 46.2955 134.997 47.827C134.795 48.2604 134.685 48.7229 134.685 49.2131V56.6149C134.685 60.539 141.684 62.6539 148.267 62.6539C154.851 62.6539 161.85 60.5362 161.85 56.6149V52.6777L173.936 57.3044L61.534 99.6619L7.71217 79.0596L6.39297 78.5548L18.7617 73.8946V78.124C18.7617 82.0496 25.7591 84.166 32.3421 84.166L32.34 84.167ZM176.03 103.866L62.682 146.577V101.692L123.865 78.6355L176.026 58.98L176.03 103.866Z" fill="black"/>
</svg>
