<svg width="100" height="100" viewBox="0 0 100 100" fill="none" xmlns="http://www.w3.org/2000/svg">
<path d="M49.9991 23.001C24.6826 23.001 1 41.1198 1 49.3439C1 52.9428 7.31998 59.5436 16.0192 65.0585C22.291 69.0237 35.0286 75.6858 49.9751 75.6858C74.6213 75.6858 99 56.3232 99 49.3429C99 43.6085 74.6707 23 50.0009 23L49.9991 23.001ZM49.9991 72.1212C43.9718 72.1313 38.1882 69.7452 33.9203 65.4892C29.6523 61.2333 27.2509 55.4547 27.245 49.4274C27.238 43.4001 29.6271 37.6175 33.886 33.3517C38.1439 29.0866 43.9236 26.6885 49.9507 26.6854C55.978 26.6824 61.7595 29.0736 66.0225 33.3347C70.2856 37.5956 72.6808 43.3764 72.6808 49.4035C72.6748 55.4205 70.2836 61.1891 66.0326 65.447C61.7817 69.7059 56.0161 72.1052 49.9991 72.1212ZM3.43978 49.3419C3.43978 44.4621 19.3012 30.284 39.7737 26.4286H39.7747C33.8834 29.033 29.2187 33.8002 26.7421 39.7458C24.2664 45.6915 24.1678 52.3618 26.4684 58.3778C28.7689 64.393 33.2915 69.296 39.1034 72.0725C19.0081 67.8146 3.43937 53.21 3.43937 49.3416L3.43978 49.3419ZM60.9794 71.9994C66.6826 69.2308 71.1278 64.4072 73.4223 58.4968C75.7158 52.5865 75.6896 46.0269 73.3478 40.1354C71.006 34.2441 66.5216 29.4558 60.7962 26.7334C80.5009 31.2842 96.5453 46.4744 96.5556 49.3416C96.5556 53.0631 80.7192 67.6436 60.9791 71.9991L60.9794 71.9994Z" fill="black"/>
<path d="M61.7011 49.3439C61.682 46.2493 60.4422 43.2865 58.2512 41.1007C56.0603 38.9139 53.0954 37.6812 50 37.668C49.0379 37.667 48.0788 37.7858 47.1449 38.0223C46.0711 36.7502 44.5152 35.9844 42.8527 35.9049C41.1902 35.8264 39.57 36.4433 38.3805 37.6077C37.191 38.772 36.5388 40.3782 36.5821 42.0428C36.6244 43.7063 37.357 45.2774 38.6049 46.3793C37.7555 49.643 38.3513 53.114 40.2393 55.9075C42.1273 58.701 45.1253 60.548 48.4694 60.9767C51.8134 61.4064 55.1809 60.3769 57.714 58.1497C60.246 55.9236 61.698 52.7164 61.7011 49.3439ZM42.4843 38.2536C43.7544 38.2526 44.9288 38.9319 45.5589 40.0349C45.8709 40.5683 46.0349 41.1742 46.0349 41.7921C46.0349 43.7545 44.4479 45.3477 42.4845 45.3546C40.517 45.3546 38.922 43.7595 38.922 41.7921C38.935 39.8337 40.526 38.2536 42.4843 38.2536Z" fill="black"/>
<path d="M62.5932 57.5679C61.4348 57.5679 60.3238 58.0278 59.5047 58.847C58.6855 59.6662 58.2256 60.7772 58.2256 61.9355C58.2256 63.0937 58.6855 64.2048 59.5047 65.024C60.3239 65.8432 61.4349 66.303 62.5932 66.303C63.7514 66.303 64.8626 65.8431 65.6817 65.024C66.5009 64.2048 66.9608 63.0937 66.9608 61.9355C66.9608 60.7772 66.5008 59.6661 65.6817 58.847C64.8625 58.0278 63.7514 57.5679 62.5932 57.5679ZM62.5932 63.8639C61.8133 63.8639 61.1108 63.3939 60.8119 62.6733C60.514 61.9528 60.679 61.1235 61.2305 60.573C61.781 60.0216 62.6103 59.8565 63.3308 60.1544C64.0514 60.4533 64.5214 61.1557 64.5214 61.9357C64.5143 62.9954 63.6529 63.8508 62.5932 63.8508L62.5932 63.8639Z" fill="black"/>
</svg>
