<svg width="181" height="181" viewBox="0 0 181 181" fill="none" xmlns="http://www.w3.org/2000/svg">
<path d="M112.512 25C135.789 25 154.66 43.8702 154.66 67.1477C154.66 90.4248 135.79 109.295 112.512 109.295C89.2358 109.295 70.3643 90.4251 70.3643 67.1477C70.3643 43.8716 89.2345 25 112.512 25V25ZM112.512 27.9571C90.8683 27.9571 73.3238 45.5027 73.3238 67.1452C73.3238 88.7899 90.8694 106.333 112.512 106.333C134.157 106.333 151.7 88.7888 151.7 67.1452C151.7 45.5015 134.156 27.9571 112.512 27.9571Z" fill="black"/>
<path d="M79.2379 94.5059C84.1389 94.5059 88.1105 98.4775 88.1105 103.378C88.1105 108.279 84.1389 112.251 79.2379 112.251C74.3369 112.251 70.3652 108.279 70.3652 103.378C70.3652 98.4775 74.3369 94.5059 79.2379 94.5059ZM79.2379 97.4629C75.9716 97.4629 73.3223 100.111 73.3223 103.378C73.3223 106.645 75.9716 109.294 79.2379 109.294C82.5042 109.294 85.1534 106.645 85.1534 103.378C85.1534 100.111 82.5042 97.4629 79.2379 97.4629Z" fill="black"/>
<path d="M68.5995 103.487C71.0943 104.505 70.1316 103.869 71.6518 105.112L76.8811 110.339C79.1911 112.649 79.1911 116.395 76.8811 118.705L41.3275 154.259C39.0174 156.569 35.2714 156.569 32.9615 154.259L27.7333 149.029C25.4222 146.719 25.4222 142.973 27.7333 140.663L63.2869 105.11C65.1583 103.365 66.2225 103.485 68.5995 103.485V103.487ZM66.8384 106.479C66.2549 106.47 65.8336 106.892 65.3776 107.202L29.824 142.756C28.669 143.911 28.669 145.784 29.824 146.94L35.0511 152.167C36.2061 153.322 38.0796 153.322 39.2346 152.167L74.7882 116.613C75.9422 115.458 75.9422 113.585 74.7882 112.43L69.56 107.201L68.5811 106.551C67.451 106.53 68.0322 106.554 66.8373 106.477L66.8384 106.479Z" fill="black"/>
<path d="M112.512 29.4365C133.339 29.4365 150.223 46.3208 150.223 67.1476C150.223 87.9744 133.34 104.859 112.512 104.859C91.6839 104.859 74.8008 87.9744 74.8008 67.1476C74.8008 46.3219 91.6839 29.4365 112.512 29.4365V29.4365ZM112.512 32.3947C93.3186 32.3947 77.7604 47.9532 77.7604 67.1462C77.7604 86.3406 93.32 101.898 112.512 101.898C131.706 101.898 147.263 86.3392 147.263 67.1462C147.263 47.9529 131.705 32.3947 112.512 32.3947V32.3947Z" fill="black"/>
<path d="M79.2372 98.9424C80.054 98.9424 80.7163 99.6047 80.7163 100.42C80.7163 101.237 80.054 101.9 79.2372 101.9C78.4203 101.9 77.758 102.562 77.758 103.379C77.758 104.194 77.0957 104.858 76.2799 104.858C75.4631 104.858 74.8008 104.195 74.8008 103.379C74.8008 100.928 76.7867 98.9424 79.2371 98.9424L79.2372 98.9424Z" fill="black"/>
<path d="M67.2748 107.899L67.9642 107.922L68.4536 108.248C69.0316 108.824 69.0316 109.762 68.4536 110.338L32.9608 145.831C32.3839 146.409 31.446 146.409 30.8691 145.831C30.291 145.254 30.291 144.316 30.8691 143.739L66.3618 108.246C66.9053 107.876 66.6039 107.995 67.2737 107.897L67.2748 107.899Z" fill="black"/>
<path d="M112.706 35.3557C116.499 35.2866 120.108 36.2049 123.637 37.4777C124.395 37.7846 124.76 38.6479 124.452 39.4031C124.144 40.1605 123.282 40.5257 122.526 40.2177C112.394 36.1045 100.428 38.825 92.2191 46.7014C84.2161 55.5536 81.4263 67.1338 85.6217 77.0965C85.9383 77.8496 85.5861 78.7161 84.8319 79.0338C84.081 79.3503 83.2123 78.997 82.8957 78.244C78.2218 67.1455 81.2988 54.3724 90.0958 44.6459C96.8334 38.2637 103.643 36.0056 112.704 35.3572L112.706 35.3557Z" fill="black"/>
</svg>
