<svg width="100" height="100" viewBox="0 0 100 100" fill="none" xmlns="http://www.w3.org/2000/svg">
<mask id="mask0_226_665" style="mask-type:alpha" maskUnits="userSpaceOnUse" x="1" y="14" width="99" height="73">
<path d="M1 14H99.98V86.3152H1V14Z" fill="white"/>
</mask>
<g mask="url(#mask0_226_665)">
<path d="M1 47.103L25.6123 55.3488L36.3352 86.2103L59.6956 67.8368L82.9242 77.2133L99.9808 14.0984L1 47.103ZM6.11327 47.1062L90.3083 19.0329L26.1693 53.8278L6.11327 47.1062ZM27.2394 55.0908L91.857 20.0367L43.3515 60.1278L36.6732 82.2487L27.2394 55.0908ZM38.2455 82.6458L44.5376 61.8034L57.9562 67.1436L38.2455 82.6458ZM81.8332 75.0279L45.5105 60.4482L97.358 17.5941L81.8332 75.0279Z" fill="black"/>
</g>
</svg>
