<svg width="100" height="101" viewBox="0 0 100 101" fill="none" xmlns="http://www.w3.org/2000/svg">
<path d="M80.9945 1H19.6355C16.5283 1 14 3.52831 14 6.63552V94.6661C14 97.7733 16.5283 100.301 19.6355 100.301H80.9945C84.1017 100.301 86.63 97.7739 86.63 94.6661L86.6292 6.63552C86.6292 3.52831 84.1 1 80.9928 1H80.9945ZM19.6355 2.46096H80.9945C83.2963 2.46096 85.1699 4.33451 85.1699 6.63643V13.7585L15.4588 13.7576V6.63561C15.4588 4.33462 17.3315 2.46098 19.6343 2.46098L19.6355 2.46096ZM15.46 86.3895V79.8148H85.1691V86.3895H15.46ZM85.1691 87.1196V93.6959L15.46 93.6967V87.1204L85.1691 87.1196ZM15.46 79.0846V72.5083H18.124C18.124 72.5289 18.1207 72.5471 18.1207 72.5678C18.1207 74.1205 19.3841 75.384 20.9378 75.384C22.4897 75.384 23.7539 74.1206 23.7539 72.5678C23.7539 72.5479 23.7523 72.5306 23.7506 72.5083H85.171V79.0846H15.46ZM23.6381 71.778C23.2949 70.6089 22.2159 69.7523 20.9377 69.7523C19.6594 69.7523 18.5787 70.6097 18.2364 71.778H15.46V65.6282H85.1691V71.778H23.6381ZM15.46 64.8964V58.3218H85.1691V64.8964H15.46ZM15.46 57.5924V51.0177H85.1691V57.5924H15.46ZM15.46 50.2866V43.7111H85.1691V50.2866H15.46ZM15.46 42.9809V36.4062H85.1691V42.9809H15.46ZM15.46 35.676V29.0996H18.1471C18.3274 30.4795 19.508 31.5502 20.9368 31.5502C22.3639 31.5502 23.5454 30.4795 23.7257 29.0996H85.1693V35.6751L15.46 35.676ZM23.7257 28.3694C23.5455 26.9894 22.3664 25.9196 20.9368 25.9196C19.5073 25.9196 18.3266 26.9895 18.1471 28.3694H15.46V21.7947H85.1691V28.3694H23.7257ZM15.46 21.0645V14.489H85.1691V21.0645H15.46ZM80.993 98.84H19.634C17.3322 98.84 15.4586 96.9664 15.4586 94.6662V94.4256H85.1676V94.6662C85.1668 96.9663 83.2932 98.84 80.9915 98.84H80.993Z" fill="black"/>
</svg>
