<svg width="160" height="100" viewBox="0 0 160 100" fill="none" xmlns="http://www.w3.org/2000/svg">
<path d="M133.178 56.1257H136.839C137.317 56.1257 137.715 56.4559 137.715 56.8522V63.2581C137.715 63.6543 137.317 63.9845 136.839 63.9845H133.178C132.701 63.9845 132.303 63.6543 132.303 63.2581V56.8522C132.303 56.4559 132.701 56.1257 133.178 56.1257ZM134.054 62.5317H135.884V57.5787H134.054V62.5317Z" fill="black"/>
<path d="M39.6569 56.1255H43.3179C43.7954 56.1255 44.1934 56.4557 44.1934 56.8519V63.2579C44.1934 63.6541 43.7954 63.9843 43.3179 63.9843H39.6569C39.1794 63.9843 38.7814 63.6541 38.7814 63.2579V56.8519C38.7814 56.4557 39.1794 56.1255 39.6569 56.1255ZM40.5324 62.5314H42.3629V57.5785H40.5324V62.5314Z" fill="black"/>
<path d="M0.0205193 52.4941C0.100108 52.1638 0.498034 51.8997 0.895975 51.8997H5.03462C5.11421 51.8997 5.19379 51.8997 5.27338 51.9657L10.6058 53.3526L2.96542 27.9258C2.88583 27.7277 2.96542 27.4635 3.12459 27.2654C3.28377 27.0673 3.52254 27.0012 3.84087 27.0012L9.7302 27.0012C9.96896 27.0012 10.2077 27.0673 10.3669 27.2654L31.7773 47.475L47.2188 52.9564H52.7901L49.9249 48.3335C49.7658 48.1354 49.7658 47.8052 49.9249 47.607C50.0841 47.4089 50.4024 47.2768 50.7208 47.2768H53.586C53.7451 47.2768 53.9839 47.3429 54.0635 47.4089L63.773 53.0885L131.506 53.4847C146.231 53.4847 151.723 58.2398 152.837 59.3622C154.349 59.7584 160 61.4095 160 64.1172C160 67.6835 146.389 70.8535 131.506 70.8535H114.075V71.3158C114.075 72.3724 113.2 73.297 112.006 73.6272L110.653 73.9574H110.414H99.8288C97.7595 73.9574 95.7698 73.6932 93.8599 73.0989L88.8459 71.778C88.4479 71.712 88.2092 71.3818 88.2092 71.0516V70.8535H57.4073C50.6422 70.8535 43.9557 69.9289 37.5091 68.1458L9.49281 60.2869C9.25405 60.2209 9.01532 60.0227 8.93571 59.8246L7.34394 56.3244L0.419677 53.4186C0.0998521 53.1544 -0.0590539 52.8243 0.0205193 52.4941ZM30.902 48.7959C30.7429 48.7299 30.6633 48.6639 30.5837 48.5978L9.41209 28.5203H5.03459L12.675 53.815L15.0626 54.4093L30.1857 53.0885C32.4937 52.8904 34.8812 52.8244 37.2688 52.8244H42.6808L30.902 48.7959ZM148.141 57.9767L144.082 57.9767V59.1654H150.29C149.733 58.8352 149.017 58.373 148.141 57.9767ZM111.45 72.1755L111.689 72.1095C112.166 71.9774 112.485 71.6472 112.485 71.251V67.2226C112.485 66.8263 112.166 66.4301 111.609 66.364L111.45 66.298L111.45 72.1755ZM110.654 64.6469C110.734 64.6469 110.734 64.6469 110.654 64.6469L112.007 64.911C113.36 65.1752 114.236 66.0998 114.236 67.2225V69.3357H131.665C147.982 69.3357 158.328 65.6376 158.328 64.0525C158.328 62.7317 154.827 61.3449 152.28 60.6844H143.207C142.729 60.6844 142.331 60.3542 142.331 59.958V57.2503C142.331 56.8541 142.729 56.5239 143.207 56.5239H144.242C141.217 55.6654 137.158 54.9389 131.667 54.9389L66.5632 54.5427L66.8815 54.7408L87.735 59.5616C87.8942 59.4295 88.0534 59.3635 88.2922 59.3635C88.6901 59.3635 89.0085 59.5616 89.0881 59.8918L90.9186 60.288C90.9186 60.222 90.839 60.156 90.839 60.0899C90.839 59.6937 91.2369 59.3635 91.7145 59.3635C92.192 59.3635 92.5899 59.6937 92.5899 60.0899C92.5899 60.288 92.5103 60.4862 92.2716 60.6182L108.19 64.3163L110.654 64.6469ZM95.1332 71.7792C96.725 72.1754 98.3167 72.3735 99.988 72.3735H109.619V66.0336L107.948 65.7695L97.4424 66.8261L96.3282 66.9582L95.0548 67.4205L95.0533 71.7792L95.1332 71.7792ZM90.1192 70.4583L93.3027 71.3169V68.0809L90.1192 69.1375V70.4583ZM13.3909 57.1183C13.8684 57.3164 14.0276 57.7787 13.7888 58.1089C13.55 58.5052 12.9929 58.6372 12.595 58.4391L9.7298 57.2504L10.4461 58.9014L38.1439 66.6282C44.3517 68.3453 50.8779 69.2698 57.4852 69.2698H88.2871V68.5434C88.2871 68.2132 88.5259 67.949 88.8442 67.883L93.8582 66.232L95.6887 65.5055C95.7683 65.5055 95.8479 65.4395 95.9275 65.4395L103.409 64.7131L66.2398 56.1278C66.1602 56.1278 66.0806 56.0617 66.001 55.9957L53.4263 48.7313H52.3121L56.0527 54.873L80.7264 65.8358C81.1244 66.0339 81.3631 66.4962 81.1244 66.8264C80.9652 67.0906 80.6468 67.2227 80.3285 67.2227C80.1693 67.2227 80.0101 67.2226 79.9305 67.1566L64.8075 60.4864C64.6483 60.6846 64.4095 60.8166 64.0912 60.8166C63.6137 60.8166 63.2157 60.4864 63.2157 60.0902C63.2157 59.9581 63.2157 59.8921 63.2953 59.826L54.8592 56.1279C54.7 56.0619 54.5409 55.9298 54.4613 55.7977L53.6654 54.543L37.1893 54.4769C34.8813 54.4769 32.5734 54.543 30.3447 54.7411L19.4414 55.6657L25.1718 57.1185C25.6493 57.2506 25.8881 57.6469 25.729 58.0431C25.6494 58.3733 25.2514 58.5714 24.8535 58.5714C24.7739 58.5714 24.6943 58.5714 24.6147 58.5054L4.87574 53.4203H4.63699L13.3909 57.1183Z" fill="black"/>
<path d="M129.673 59.3628C130.151 59.3628 130.549 59.693 130.549 60.0892C130.549 60.4855 130.151 60.8157 129.673 60.8157C129.196 60.8157 128.798 60.4855 128.798 60.0892C128.798 59.693 129.196 59.3628 129.673 59.3628Z" fill="black"/>
<path d="M126.171 59.363C126.649 59.363 127.047 59.6932 127.047 60.0895C127.047 60.4857 126.649 60.8159 126.171 60.8159C125.694 60.8159 125.296 60.4857 125.296 60.0895C125.296 59.6932 125.694 59.363 126.171 59.363Z" fill="black"/>
<path d="M122.75 59.3628C123.227 59.3628 123.625 59.693 123.625 60.0892C123.625 60.4855 123.227 60.8157 122.75 60.8157C122.272 60.8157 121.874 60.4855 121.874 60.0892C121.874 59.693 122.272 59.3628 122.75 59.3628Z" fill="black"/>
<path d="M119.326 59.3628C119.803 59.3628 120.201 59.693 120.201 60.0892C120.201 60.4855 119.803 60.8157 119.326 60.8157C118.848 60.8157 118.45 60.4855 118.45 60.0892C118.45 59.693 118.848 59.3628 119.326 59.3628Z" fill="black"/>
<path d="M115.826 59.3633C116.303 59.3633 116.701 59.6935 116.701 60.0897C116.701 60.4859 116.303 60.8162 115.826 60.8162C115.348 60.8162 114.95 60.4859 114.95 60.0897C114.95 59.6935 115.348 59.3633 115.826 59.3633Z" fill="black"/>
<path d="M112.405 59.3633C112.882 59.3633 113.28 59.6935 113.28 60.0897C113.28 60.4859 112.882 60.8162 112.405 60.8162C111.927 60.8162 111.529 60.4859 111.529 60.0897C111.529 59.6935 111.927 59.3633 112.405 59.3633Z" fill="black"/>
<path d="M108.904 59.3633C109.381 59.3633 109.779 59.6935 109.779 60.0897C109.779 60.4859 109.381 60.8162 108.904 60.8162C108.426 60.8162 108.028 60.4859 108.028 60.0897C108.028 59.6935 108.426 59.3633 108.904 59.3633Z" fill="black"/>
<path d="M105.48 60.8157C105.002 60.8157 104.605 60.4855 104.605 60.0892C104.605 59.693 105.002 59.3628 105.48 59.3628C105.958 59.3628 106.355 59.693 106.355 60.0892C106.355 60.4855 105.958 60.8157 105.48 60.8157Z" fill="black"/>
<path d="M102.058 60.8157C101.581 60.8157 101.183 60.4855 101.183 60.0892C101.183 59.693 101.581 59.3628 102.058 59.3628C102.536 59.3628 102.934 59.693 102.934 60.0892C102.934 60.4855 102.536 60.8157 102.058 60.8157Z" fill="black"/>
<path d="M98.5523 60.8152C98.0748 60.8152 97.6768 60.485 97.6768 60.0887C97.6768 59.6925 98.0748 59.3623 98.5523 59.3623C99.0298 59.3623 99.4277 59.6925 99.4277 60.0887C99.4277 60.485 99.0298 60.8152 98.5523 60.8152Z" fill="black"/>
<path d="M95.1304 60.8157C94.6529 60.8157 94.2549 60.4855 94.2549 60.0892C94.2549 59.693 94.6529 59.3628 95.1304 59.3628C95.6079 59.3628 96.0059 59.693 96.0059 60.0892C96.0059 60.4855 95.6079 60.8157 95.1304 60.8157Z" fill="black"/>
<path d="M60.5904 59.363C61.0679 59.363 61.4658 59.6932 61.4658 60.0895C61.4658 60.4857 61.0679 60.8159 60.5904 60.8159C60.1129 60.8159 59.7149 60.4857 59.7149 60.0895C59.7149 59.6932 60.1129 59.363 60.5904 59.363Z" fill="black"/>
<path d="M57.1665 59.363C57.644 59.363 58.042 59.6932 58.042 60.0895C58.042 60.4857 57.644 60.8159 57.1665 60.8159C56.689 60.8159 56.2911 60.4857 56.2911 60.0895C56.2911 59.6932 56.689 59.363 57.1665 59.363Z" fill="black"/>
<path d="M53.6656 59.363C54.1431 59.363 54.541 59.6932 54.541 60.0895C54.541 60.4857 54.1431 60.8159 53.6656 60.8159C53.188 60.8159 52.7901 60.4857 52.7901 60.0895C52.7901 59.6932 53.188 59.363 53.6656 59.363Z" fill="black"/>
<path d="M50.2447 59.3628C50.7222 59.3628 51.1201 59.693 51.1201 60.0892C51.1201 60.4855 50.7222 60.8157 50.2447 60.8157C49.7671 60.8157 49.3692 60.4855 49.3692 60.0892C49.3692 59.693 49.7671 59.3628 50.2447 59.3628Z" fill="black"/>
<path d="M46.8218 59.3633C47.2993 59.3633 47.6973 59.6935 47.6973 60.0897C47.6973 60.4859 47.2993 60.8162 46.8218 60.8162C46.3443 60.8162 45.9464 60.4859 45.9464 60.0897C45.9464 59.6935 46.3443 59.3633 46.8218 59.3633Z" fill="black"/>
</svg>
