<svg width="100" height="100" viewBox="0 0 100 100" fill="none" xmlns="http://www.w3.org/2000/svg">
<path d="M82.572 54.498H84.8144C85.1068 54.498 85.3506 54.7418 85.3506 55.0343V59.7628C85.3506 60.0552 85.1068 60.299 84.8144 60.299H82.572C82.2795 60.299 82.0358 60.0552 82.0358 59.7628V55.0343C82.0358 54.7418 82.2795 54.498 82.572 54.498ZM83.1082 59.2265H84.2294V55.5706H83.1082V59.2265Z" fill="black"/>
<path d="M25.2898 54.498H27.5321C27.8246 54.498 28.0684 54.7418 28.0684 55.0343V59.7628C28.0684 60.0552 27.8246 60.299 27.5321 60.299H25.2898C24.9973 60.299 24.7536 60.0552 24.7536 59.7628V55.0343C24.7536 54.7418 24.9973 54.498 25.2898 54.498ZM25.826 59.2265H26.9472V55.5706H25.826V59.2265Z" fill="black"/>
<path d="M1.01257 51.8174C1.06131 51.5736 1.30505 51.3787 1.54879 51.3787H4.0837C4.13245 51.3787 4.1812 51.3787 4.22994 51.4274L7.49605 52.4511L2.81631 33.6825C2.76756 33.5362 2.81631 33.3412 2.91381 33.195C3.0113 33.0487 3.15756 33 3.35253 33H6.95975C7.10599 33 7.25222 33.0487 7.34972 33.195L20.4636 48.1126L29.9215 52.1587H33.3339L31.579 48.7463C31.4815 48.6 31.4815 48.3563 31.579 48.2101C31.6765 48.0638 31.8715 47.9663 32.0665 47.9663H33.8214C33.9189 47.9663 34.0651 48.0151 34.1139 48.0638L40.061 52.2562L81.5477 52.5486C90.5668 52.5486 93.9304 56.0586 94.6128 56.887C95.539 57.1795 99 58.3982 99 60.397C99 63.0294 90.6634 65.3693 81.5475 65.3693H70.871V65.7105C70.871 66.4905 70.3347 67.1729 69.6035 67.4167L68.7748 67.6604H68.6286H62.1451C60.8777 67.6604 59.659 67.4654 58.4892 67.0267L55.4181 66.0517C55.1744 66.003 55.0281 65.7592 55.0281 65.5155V65.3693H36.162C32.0184 65.3693 27.9229 64.6868 23.9743 63.3706L6.81435 57.5696C6.66811 57.5209 6.52188 57.3746 6.47312 57.2284L5.49816 54.6447L1.25705 52.4998C1.06116 52.3048 0.963672 52.0611 1.01241 51.8174H1.01257ZM19.9275 49.0876C19.83 49.0389 19.7812 48.9901 19.7325 48.9414L6.7649 34.1213H4.08369L8.76342 52.7924L10.2258 53.2311L19.4887 52.2562C20.9024 52.1099 22.3647 52.0612 23.8271 52.0612H27.142L19.9275 49.0876ZM91.7366 55.8644H89.2505V56.7418H93.0527C92.7115 56.4981 92.2728 56.1569 91.7365 55.8644H91.7366ZM69.2632 66.3451L69.4095 66.2964C69.702 66.1989 69.897 65.9551 69.897 65.6627V62.6891C69.897 62.3966 69.702 62.1042 69.3607 62.0554L69.2633 62.0067L69.2632 66.3451ZM68.7758 60.7879C68.8245 60.7879 68.8245 60.7879 68.7758 60.7879L69.6045 60.9829C70.4332 61.1779 70.9694 61.8604 70.9694 62.689V64.249H81.6449C91.639 64.249 97.9762 61.5192 97.9762 60.3492C97.9762 59.3742 95.8313 58.3506 94.2715 57.863H88.7142C88.4218 57.863 88.178 57.6193 88.178 57.3268V55.3282C88.178 55.0357 88.4218 54.792 88.7142 54.792H89.348C87.4956 54.1582 85.0096 53.622 81.6459 53.622L41.7699 53.3296L41.9649 53.4758L54.7377 57.0342C54.8352 56.9367 54.9327 56.888 55.079 56.888C55.3227 56.888 55.5177 57.0342 55.5664 57.278L56.6876 57.5705C56.6876 57.5217 56.6389 57.473 56.6389 57.4242C56.6389 57.1317 56.8826 56.888 57.1751 56.888C57.4676 56.888 57.7113 57.1317 57.7113 57.4242C57.7113 57.5705 57.6626 57.7167 57.5163 57.8142L67.2666 60.5439L68.7758 60.7879ZM59.2691 66.0526C60.244 66.345 61.219 66.4913 62.2426 66.4913H68.1419V61.8115L67.1182 61.6165L60.6835 62.3965L60.001 62.494L59.2211 62.8352L59.2202 66.0526L59.2691 66.0526ZM56.198 65.0776L58.1479 65.7113V63.3227L56.198 64.1026V65.0776ZM9.20191 55.2307C9.49439 55.377 9.59188 55.7182 9.44564 55.962C9.2994 56.2544 8.95816 56.3519 8.71442 56.2057L6.95951 55.3282L7.39823 56.5469L24.3632 62.2504C28.1654 63.5178 32.1627 64.2003 36.2097 64.2003H55.0759V63.6641C55.0759 63.4203 55.2221 63.2254 55.4171 63.1766L58.4882 61.9579L59.6093 61.4217C59.6581 61.4217 59.7068 61.373 59.7556 61.373L64.3378 60.8368L41.5719 54.4996C41.5231 54.4996 41.4744 54.4508 41.4256 54.4021L33.7236 49.0399H33.0411L35.3323 53.5734L50.4449 61.6655C50.6887 61.8117 50.8349 62.153 50.6887 62.3967C50.5912 62.5917 50.3962 62.6892 50.2012 62.6892C50.1037 62.6892 50.0062 62.6892 49.9574 62.6404L40.6946 57.7169C40.5971 57.8631 40.4508 57.9606 40.2559 57.9606C39.9634 57.9606 39.7196 57.7169 39.7196 57.4244C39.7196 57.3269 39.7196 57.2782 39.7684 57.2294L34.6013 54.4997C34.5038 54.451 34.4063 54.3535 34.3575 54.256L33.8701 53.3298L23.7785 53.281C22.3648 53.281 20.9512 53.3298 19.5861 53.476L12.9078 54.1585L16.4177 55.2309C16.7102 55.3284 16.8565 55.6209 16.759 55.9134C16.7102 56.1571 16.4665 56.3033 16.2228 56.3033C16.174 56.3033 16.1253 56.3033 16.0765 56.2546L3.98639 52.5011H3.84016L9.20191 55.2307Z" fill="black"/>
<path d="M80.4247 56.8877C80.7172 56.8877 80.9609 57.1314 80.9609 57.4239C80.9609 57.7164 80.7172 57.9601 80.4247 57.9601C80.1322 57.9601 79.8885 57.7164 79.8885 57.4239C79.8885 57.1314 80.1322 56.8877 80.4247 56.8877Z" fill="black"/>
<path d="M78.2802 56.8877C78.5727 56.8877 78.8164 57.1314 78.8164 57.4239C78.8164 57.7164 78.5727 57.9601 78.2802 57.9601C77.9877 57.9601 77.744 57.7164 77.744 57.4239C77.744 57.1314 77.9877 56.8877 78.2802 56.8877Z" fill="black"/>
<path d="M76.1845 56.8877C76.477 56.8877 76.7207 57.1314 76.7207 57.4239C76.7207 57.7164 76.477 57.9601 76.1845 57.9601C75.892 57.9601 75.6483 57.7164 75.6483 57.4239C75.6483 57.1314 75.892 56.8877 76.1845 56.8877Z" fill="black"/>
<path d="M74.0878 56.8877C74.3803 56.8877 74.624 57.1314 74.624 57.4239C74.624 57.7164 74.3803 57.9601 74.0878 57.9601C73.7953 57.9601 73.5516 57.7164 73.5516 57.4239C73.5516 57.1314 73.7953 56.8877 74.0878 56.8877Z" fill="black"/>
<path d="M71.9433 56.8877C72.2358 56.8877 72.4795 57.1314 72.4795 57.4239C72.4795 57.7164 72.2358 57.9601 71.9433 57.9601C71.6508 57.9601 71.4071 57.7164 71.4071 57.4239C71.4071 57.1314 71.6508 56.8877 71.9433 56.8877Z" fill="black"/>
<path d="M69.8476 56.8877C70.14 56.8877 70.3838 57.1314 70.3838 57.4239C70.3838 57.7164 70.14 57.9601 69.8476 57.9601C69.5551 57.9601 69.3114 57.7164 69.3114 57.4239C69.3114 57.1314 69.5551 56.8877 69.8476 56.8877Z" fill="black"/>
<path d="M67.703 56.8877C67.9955 56.8877 68.2393 57.1314 68.2393 57.4239C68.2393 57.7164 67.9955 57.9601 67.703 57.9601C67.4106 57.9601 67.1668 57.7164 67.1668 57.4239C67.1668 57.1314 67.4106 56.8877 67.703 56.8877Z" fill="black"/>
<path d="M65.6064 57.9599C65.3139 57.9599 65.0701 57.7161 65.0701 57.4237C65.0701 57.1312 65.3139 56.8875 65.6064 56.8875C65.8988 56.8875 66.1426 57.1312 66.1426 57.4237C66.1426 57.7161 65.8988 57.9599 65.6064 57.9599Z" fill="black"/>
<path d="M63.5107 57.9599C63.2182 57.9599 62.9744 57.7161 62.9744 57.4237C62.9744 57.1312 63.2182 56.8875 63.5107 56.8875C63.8031 56.8875 64.0469 57.1312 64.0469 57.4237C64.0469 57.7161 63.8031 57.9599 63.5107 57.9599Z" fill="black"/>
<path d="M61.3642 57.9599C61.0717 57.9599 60.828 57.7161 60.828 57.4237C60.828 57.1312 61.0717 56.8875 61.3642 56.8875C61.6566 56.8875 61.9004 57.1312 61.9004 57.4237C61.9004 57.7161 61.6566 57.9599 61.3642 57.9599Z" fill="black"/>
<path d="M59.2675 57.9599C58.975 57.9599 58.7313 57.7161 58.7313 57.4237C58.7313 57.1312 58.975 56.8875 59.2675 56.8875C59.56 56.8875 59.8037 57.1312 59.8037 57.4237C59.8037 57.7161 59.56 57.9599 59.2675 57.9599Z" fill="black"/>
<path d="M38.1112 56.8877C38.4037 56.8877 38.6475 57.1314 38.6475 57.4239C38.6475 57.7164 38.4037 57.9601 38.1112 57.9601C37.8188 57.9601 37.575 57.7164 37.575 57.4239C37.575 57.1314 37.8188 56.8877 38.1112 56.8877Z" fill="black"/>
<path d="M36.0146 56.8877C36.307 56.8877 36.5508 57.1314 36.5508 57.4239C36.5508 57.7164 36.307 57.9601 36.0146 57.9601C35.7221 57.9601 35.4783 57.7164 35.4783 57.4239C35.4783 57.1314 35.7221 56.8877 36.0146 56.8877Z" fill="black"/>
<path d="M33.87 56.8877C34.1625 56.8877 34.4062 57.1314 34.4062 57.4239C34.4062 57.7164 34.1625 57.9601 33.87 57.9601C33.5776 57.9601 33.3338 57.7164 33.3338 57.4239C33.3338 57.1314 33.5776 56.8877 33.87 56.8877Z" fill="black"/>
<path d="M31.7743 56.8877C32.0668 56.8877 32.3105 57.1314 32.3105 57.4239C32.3105 57.7164 32.0668 57.9601 31.7743 57.9601C31.4818 57.9601 31.2381 57.7164 31.2381 57.4239C31.2381 57.1314 31.4818 56.8877 31.7743 56.8877Z" fill="black"/>
<path d="M29.6777 56.8877C29.9701 56.8877 30.2139 57.1314 30.2139 57.4239C30.2139 57.7164 29.9701 57.9601 29.6777 57.9601C29.3852 57.9601 29.1414 57.7164 29.1414 57.4239C29.1414 57.1314 29.3852 56.8877 29.6777 56.8877Z" fill="black"/>
</svg>
