<svg width="100" height="101" viewBox="0 0 100 101" fill="none" xmlns="http://www.w3.org/2000/svg">
<path d="M61.2865 66.1201V18.9306C61.2865 12.687 56.2434 2 49.9997 2C43.7562 2 38.7129 12.6866 38.7129 18.9306V66.1201" stroke="black" stroke-width="2.63" stroke-miterlimit="10" stroke-linecap="round" stroke-linejoin="round"/>
<path d="M57.9249 18.9307C57.9249 14.4876 54.3227 7.0437 49.9995 7.0437C45.5565 7.0437 42.0742 14.6086 42.0742 18.9307C42.0742 18.9307 45.4367 18.0898 49.9995 18.0898C54.5624 18.0908 57.9249 18.9307 57.9249 18.9307Z" stroke="black" stroke-width="2.63" stroke-miterlimit="10" stroke-linecap="round" stroke-linejoin="round"/>
<path d="M41.9563 65.3994C37.5133 65.3994 33.9111 69.0016 33.9111 73.4446V94.8179H50V73.4446C50 69.0016 46.3979 65.3994 41.9558 65.3994H41.9563Z" stroke="black" stroke-width="2.63" stroke-miterlimit="10" stroke-linecap="round" stroke-linejoin="round"/>
<path d="M58.0452 65.3994C53.6021 65.3994 50 69.0016 50 73.4446V94.8179H66.0901V73.4446C66.0901 69.0016 62.4879 65.3994 58.0449 65.3994H58.0452Z" stroke="black" stroke-width="2.63" stroke-miterlimit="10" stroke-linecap="round" stroke-linejoin="round"/>
<path d="M61.2871 30.2175C61.2871 30.2175 65.0091 43.4258 69.5719 52.4314C74.0149 61.1967 86.1423 74.4052 86.8627 82.9305C87.4629 90.735 85.902 96.499 85.902 96.499C85.902 96.499 72.0934 89.775 66.0896 89.2947" stroke="black" stroke-width="2.63" stroke-miterlimit="10" stroke-linecap="round" stroke-linejoin="round"/>
<path d="M38.713 30.2175C38.713 30.2175 34.991 43.4258 30.4282 52.4314C25.8653 61.3165 13.8578 74.4052 13.1374 83.0506C12.5372 90.8551 14.0981 96.6191 14.0981 96.6191C14.0981 96.6191 27.9067 89.8951 33.9105 89.4148" stroke="black" stroke-width="2.63" stroke-miterlimit="10" stroke-linecap="round" stroke-linejoin="round"/>
<path d="M83.5005 80.8897C84.2206 82.6912 84.5811 84.7324 84.7009 86.6528C84.8208 87.6135 84.8208 88.5742 84.7009 89.6548C84.7009 90.6155 84.5811 91.5762 84.3404 92.6568L84.1007 94.0979L82.6597 93.4977C81.2186 92.8975 79.7776 92.1765 78.3364 91.3366C77.6164 90.9761 76.8954 90.4957 76.2952 90.1362C75.5751 89.6558 74.974 89.1755 74.2539 88.6951C75.0948 88.815 75.9347 88.9348 76.6557 89.1755C77.4966 89.4151 78.2166 89.536 79.0575 89.7757C80.6184 90.256 82.1792 90.8562 83.6203 91.4564L81.9396 92.2973C82.0594 91.4564 82.1793 90.4957 82.3001 89.5359C82.4199 88.5752 82.5398 87.7343 82.6606 86.7745L83.0211 83.8924C83.2608 82.8109 83.3807 81.8502 83.5005 80.8894L83.5005 80.8897Z" fill="black"/>
<path d="M16.6201 80.7703C16.8598 81.731 16.8598 82.6917 16.9806 83.6524L17.3411 86.5345C17.461 87.4952 17.5808 88.4559 17.7017 89.2958C17.8215 90.2566 17.9413 91.2172 18.0622 92.0572L16.3795 91.0975C17.9403 90.4973 19.3815 89.8971 20.9423 89.4167C21.6623 89.1771 22.5032 88.9364 23.3441 88.8165C24.1849 88.6967 24.905 88.456 25.7459 88.3362C25.1457 88.8166 24.4246 89.2969 23.7046 89.7773C22.9846 90.2576 22.2635 90.6181 21.6633 90.9777C20.2223 91.8185 18.7813 92.4187 17.3401 93.1388L15.899 93.739L15.6593 92.4177C15.4197 91.3372 15.4197 90.3765 15.2988 89.4157V86.4137C15.5385 84.6131 15.899 82.572 16.62 80.7703L16.6201 80.7703Z" fill="black"/>
<path d="M33.9111 94.8179C33.9111 94.8179 40.1547 98.7806 41.9563 98.7806C43.7568 98.7806 50.0005 94.8179 50.0005 94.8179" stroke="black" stroke-width="2.63" stroke-miterlimit="10" stroke-linecap="round" stroke-linejoin="round"/>
<path d="M50 94.8179C50 94.8179 56.2435 98.7806 58.0452 98.7806C59.8468 98.7806 66.0903 94.8179 66.0903 94.8179" stroke="black" stroke-width="2.63" stroke-miterlimit="10" stroke-linecap="round" stroke-linejoin="round"/>
</svg>
