<svg width="100" height="100" viewBox="0 0 100 100" fill="none" xmlns="http://www.w3.org/2000/svg">
<path d="M16.0492 63.9957V61.8929H12.8432C11.0067 61.8929 9.518 60.4017 9.518 58.5624L9.51912 9.33051C9.51912 7.4911 11.0079 6 12.8443 6H87.1595C88.996 6 90.4847 7.49118 90.4847 9.33051V58.5624C90.4847 60.4018 88.9959 61.8929 87.1595 61.8929H83.9524V63.9957H88.0499C88.6015 63.9957 89.0918 64.3473 89.2735 64.8685L97.815 89.5779C97.9365 89.9295 98 90.2967 98 90.6695C98 92.5089 96.5112 94 94.6748 94H5.32538C4.95652 94 4.58879 93.9386 4.23776 93.8169C2.50158 93.2142 1.58332 91.3168 2.18397 89.5778L10.7255 64.8684C10.9083 64.3472 11.3986 63.9956 11.9491 63.9956L16.0492 63.9957ZM13.2978 58.1102H86.7087V9.78408H13.2978V58.1102ZM23.1733 63.9957H76.8286V61.8929H23.1733V63.9957ZM50.7675 7.88052C50.7675 7.45861 50.4265 7.11484 50.0019 7.11484C49.5807 7.11484 49.2397 7.45861 49.2397 7.88052C49.2397 8.30244 49.5807 8.6462 50.0019 8.6462C50.4265 8.64844 50.7675 8.30467 50.7675 7.88052ZM59.1296 90.0174C59.504 90.0174 59.8105 89.7127 59.8105 89.3377C59.8105 89.2607 59.7971 89.187 59.7737 89.1156L58.0264 84.0684C57.9896 83.9601 57.8882 83.8887 57.7745 83.8887H42.228C42.1143 83.8887 42.014 83.9601 41.9761 84.0684L40.2321 89.1156C40.1073 89.4705 40.2979 89.859 40.6522 89.9806C40.7236 90.0074 40.7993 90.0174 40.874 90.0174H59.1296Z" fill="black"/>
</svg>
